<?xml version="1.0" encoding="UTF-8" standalone="no" ?>
<!DOCTYPE svg PUBLIC "-//W3C//DTD SVG 1.1//EN" "http://www.w3.org/Graphics/SVG/1.1/DTD/svg11.dtd">
<svg xmlns="http://www.w3.org/2000/svg" xmlns:xlink="http://www.w3.org/1999/xlink" version="1.1" width="343.19" height="316.3079" xml:space="preserve">
<desc>Created with Fabric.js 1.6.0-rc.1</desc>
<defs></defs>
<g style="stroke: none; stroke-width: 1; stroke-dasharray: none; stroke-linecap: butt; stroke-linejoin: miter; stroke-miterlimit: 10; fill: none; fill-rule: nonzero; opacity: 1;" transform="translate(10 10) scale(0.63 0.63)" >
  <path d="M 277.17 232.086 l 33.466 3.981 c 4.342 0.511 7.447 4.453 6.936 8.792 c -0.245 2.075 -1.271 3.863 -2.746 5.113 L 290.4 272.499 l 6.56 33.067 c 0.837 4.298 -1.963 8.455 -6.256 9.292 c -1.982 0.387 -3.937 -0.004 -5.549 -0.958 l -29.123 -16.353 l -29.407 16.445 c -3.813 2.116 -8.627 0.746 -10.744 -3.065 c -0.948 -1.707 -1.198 -3.611 -0.844 -5.386 l -0.023 -0.004 l 6.596 -32.953 l -24.701 -22.86 c -3.195 -2.958 -3.392 -7.95 -0.432 -11.149 c 1.336 -1.445 3.084 -2.275 4.896 -2.479 l -0.004 -0.029 l 33.318 -3.902 l 14.116 -30.577 c 1.829 -3.967 6.532 -5.699 10.499 -3.871 c 1.928 0.89 3.327 2.457 4.047 4.288 L 277.17 232.086 L 277.17 232.086 z M 74.668 426.666 h 362.665 v -85.334 v -85.336 v -85.329 V 85.333 H 74.668 v 85.334 v 85.329 v 85.336 V 426.666 z" style="stroke: none; stroke-width: 1; stroke-dasharray: none; stroke-linecap: butt; stroke-linejoin: miter; stroke-miterlimit: 10; fill: #ff0061; fill-rule: nonzero; opacity: 1;" transform=" matrix(1 0 0 1 0 0) " stroke-linecap="round" />
  <path d="M 310.636 236.068 l -33.466 -3.981 l -13.824 -30.081 c -0.72 -1.832 -2.12 -3.399 -4.047 -4.288 c -3.967 -1.827 -8.669 -0.096 -10.499 3.871 l -14.116 30.577 l -33.318 3.902 l 0.004 0.029 c -1.812 0.204 -3.561 1.034 -4.896 2.479 c -2.959 3.198 -2.763 8.19 0.432 11.149 l 24.701 22.86 l -6.596 32.953 l 0.023 0.004 c -0.354 1.775 -0.105 3.679 0.844 5.386 c 2.117 3.81 6.932 5.181 10.744 3.065 l 29.407 -16.445 l 29.123 16.353 c 1.613 0.955 3.568 1.346 5.549 0.958 c 4.294 -0.837 7.094 -4.995 6.257 -9.292 l -6.561 -33.067 l 24.426 -22.527 c 1.475 -1.25 2.5 -3.038 2.746 -5.113 C 318.084 240.521 314.979 236.578 310.636 236.068 z" style="stroke: none; stroke-width: 1; stroke-dasharray: none; stroke-linecap: butt; stroke-linejoin: miter; stroke-miterlimit: 10; fill: #ff0061; fill-rule: nonzero; opacity: 1;" transform=" matrix(1 0 0 1 0 0) " stroke-linecap="round" />
  <path d="M 501.333 42.666 c -5.892 0 -10.668 4.776 -10.668 10.667 v 21.333 H 448 V 53.333 c 0 -5.892 -4.777 -10.667 -10.667 -10.667 c -5.892 0 -10.667 4.776 -10.667 10.667 v 21.333 H 85.336 V 53.333 c 0 -5.892 -4.776 -10.667 -10.667 -10.667 c -5.891 0 -10.667 4.776 -10.667 10.667 v 21.333 H 21.335 V 53.333 c 0 -5.892 -4.777 -10.667 -10.667 -10.667 C 4.776 42.666 0 47.442 0 53.333 v 405.334 c 0 5.889 4.776 10.667 10.667 10.667 c 5.891 0 10.667 -4.778 10.667 -10.667 v -21.333 h 42.666 v 21.333 c 0 5.889 4.777 10.667 10.667 10.667 c 5.892 0 10.667 -4.778 10.667 -10.667 v -21.333 h 341.33 v 21.333 c 0 5.889 4.776 10.667 10.667 10.667 c 5.891 0 10.667 -4.778 10.667 -10.667 v -21.333 h 42.665 v 21.333 c 0 5.889 4.776 10.667 10.668 10.667 c 5.892 0 10.667 -4.778 10.667 -10.667 V 53.333 C 512 47.442 507.224 42.666 501.333 42.666 z M 64.001 245.33 H 21.335 v -63.994 h 42.666 V 245.33 z M 21.335 266.665 h 42.666 v 64.001 H 21.335 V 266.665 z M 85.336 96.001 h 341.33 v 319.998 H 85.336 V 96.001 z M 448 181.335 h 42.665 v 63.994 H 448 V 181.335 z M 448 266.665 h 42.665 v 64.001 H 448 V 266.665 z M 490.665 160 H 448 V 96.001 h 42.665 V 160 z M 64.001 96.001 V 160 H 21.335 V 96.001 H 64.001 z M 21.335 352 h 42.666 v 63.999 H 21.335 V 352 z M 448 415.999 V 352 h 42.665 v 63.999 H 448 z" style="stroke: none; stroke-width: 1; stroke-dasharray: none; stroke-linecap: butt; stroke-linejoin: miter; stroke-miterlimit: 10; fill: #e3e0e3; fill-rule: nonzero; opacity: 1;" transform=" matrix(1 0 0 1 0 0) " stroke-linecap="round" />
  <path d="M 310.77 138.671 h 0.254 c 5.892 0 10.667 -4.778 10.667 -10.667 c 0 -5.892 -4.776 -10.667 -10.667 -10.667 h -0.254 c -5.891 0 -10.668 4.776 -10.668 10.667 C 300.102 133.894 304.879 138.671 310.77 138.671 z" style="stroke: none; stroke-width: 1; stroke-dasharray: none; stroke-linecap: butt; stroke-linejoin: miter; stroke-miterlimit: 10; fill: #e3e0e3; fill-rule: nonzero; opacity: 1;" transform=" matrix(1 0 0 1 0 0) " stroke-linecap="round" />
  <path d="M 394.668 117.332 h -52.999 c -5.891 0 -10.667 4.776 -10.667 10.667 c 0 5.89 4.777 10.667 10.667 10.667 h 52.999 c 5.892 0 10.667 -4.777 10.667 -10.667 C 405.336 122.108 400.56 117.332 394.668 117.332 z" style="stroke: none; stroke-width: 1; stroke-dasharray: none; stroke-linecap: butt; stroke-linejoin: miter; stroke-miterlimit: 10; fill: #e3e0e3; fill-rule: nonzero; opacity: 1;" transform=" matrix(1 0 0 1 0 0) " stroke-linecap="round" />
  <path d="M 201.23 373.333 h -0.255 c -5.892 0 -10.667 4.776 -10.667 10.667 c 0 5.89 4.776 10.667 10.667 10.667 h 0.255 c 5.892 0 10.667 -4.778 10.667 -10.667 C 211.898 378.108 207.122 373.333 201.23 373.333 z" style="stroke: none; stroke-width: 1; stroke-dasharray: none; stroke-linecap: butt; stroke-linejoin: miter; stroke-miterlimit: 10; fill: #e3e0e3; fill-rule: nonzero; opacity: 1;" transform=" matrix(1 0 0 1 0 0) " stroke-linecap="round" />
  <path d="M 170.332 373.329 h -52.998 c -5.892 0 -10.667 4.776 -10.667 10.667 c 0 5.891 4.776 10.668 10.667 10.668 h 52.998 c 5.892 0 10.667 -4.777 10.667 -10.668 C 181 378.104 176.224 373.329 170.332 373.329 z" style="stroke: none; stroke-width: 1; stroke-dasharray: none; stroke-linecap: butt; stroke-linejoin: miter; stroke-miterlimit: 10; fill: #e3e0e3; fill-rule: nonzero; opacity: 1;" transform=" matrix(1 0 0 1 0 0) " stroke-linecap="round" />
  <path d="M 311.895 225.475 l -27.527 -3.273 l -11.229 -24.435 c -1.799 -4.33 -5.118 -7.78 -9.368 -9.732 c -2.462 -1.136 -5.08 -1.713 -7.782 -1.713 c -7.226 0 -13.851 4.238 -16.873 10.794 l -11.61 25.148 l -27.38 3.209 c -0.384 0.044 -0.765 0.111 -1.138 0.196 c -3.965 0.71 -7.605 2.696 -10.343 5.663 c -6.947 7.511 -6.49 19.272 1.018 26.221 l 20.312 18.799 l -5.421 27.092 c -0.071 0.358 -0.125 0.719 -0.158 1.082 c -0.555 3.979 0.201 8.053 2.159 11.58 c 3.27 5.892 9.493 9.551 16.238 9.551 c 3.142 0 6.258 -0.809 9.043 -2.354 l 24.185 -13.533 l 23.827 13.384 c 2.838 1.65 6.061 2.521 9.334 2.521 c 1.194 0 2.395 -0.116 3.565 -0.346 c 10.057 -1.963 16.645 -11.743 14.678 -21.84 l -5.398 -27.202 l 19.9 -18.351 c 3.482 -3.038 5.694 -7.223 6.239 -11.824 c 0.581 -4.929 -0.79 -9.791 -3.864 -13.689 C 321.225 228.522 316.814 226.053 311.895 225.475 z M 283.167 264.658 c -2.731 2.516 -3.954 6.276 -3.231 9.918 l 5.395 27.189 l -24.074 -13.524 c -1.621 -0.912 -3.423 -1.367 -5.224 -1.367 c -1.795 0 -3.59 0.452 -5.208 1.356 l -24.177 13.526 l 5.419 -27.079 c 0.73 -3.64 -0.489 -7.399 -3.214 -9.922 l -20.303 -18.789 l 27.375 -3.207 c 3.689 -0.431 6.888 -2.752 8.444 -6.123 l 11.603 -25.133 l 11.505 25.04 c 1.551 3.375 4.746 5.703 8.434 6.14 l 27.536 3.273 L 283.167 264.658 z" style="stroke: none; stroke-width: 1; stroke-dasharray: none; stroke-linecap: butt; stroke-linejoin: miter; stroke-miterlimit: 10; fill: #e3e0e3; fill-rule: nonzero; opacity: 1;" transform=" matrix(1 0 0 1 0 0) " stroke-linecap="round" />
</g>
  <g transform="translate(172.32 174.86) scale(1.11 1.11)">
   <text font-family="Northern Lights" font-size="40" font-weight="bold" style="stroke: none; stroke-width: 1; stroke-dasharray: none; stroke-linecap: butt; stroke-linejoin: miter; stroke-miterlimit: 10; fill: #2e2c2e; fill-rule: nonzero; opacity: 1;" ><tspan x="-76.06" y="8.98" style="stroke: none; stroke-width: 0; stroke-dasharray: none; stroke-linecap: butt; stroke-linejoin: miter; stroke-miterlimit: 4; fill: #2e2c2e; fill-rule: ; opacity: 1;">C</tspan><tspan x="-52.49" y="8.98" style="stroke: none; stroke-width: 0; stroke-dasharray: none; stroke-linecap: butt; stroke-linejoin: miter; stroke-miterlimit: 4; fill: #2e2c2e; fill-rule: ; opacity: 1;">a</tspan><tspan x="-30.07" y="8.98" style="stroke: none; stroke-width: 0; stroke-dasharray: none; stroke-linecap: butt; stroke-linejoin: miter; stroke-miterlimit: 4; fill: #2e2c2e; fill-rule: ; opacity: 1;">m</tspan><tspan x="-6.81" y="8.98" style="stroke: none; stroke-width: 0; stroke-dasharray: none; stroke-linecap: butt; stroke-linejoin: miter; stroke-miterlimit: 4; fill: #2e2c2e; fill-rule: ; opacity: 1;">e</tspan><tspan x="13.13" y="8.98" style="stroke: none; stroke-width: 0; stroke-dasharray: none; stroke-linecap: butt; stroke-linejoin: miter; stroke-miterlimit: 4; fill: #2e2c2e; fill-rule: ; opacity: 1;">r</tspan><tspan x="28.96" y="8.98" style="stroke: none; stroke-width: 0; stroke-dasharray: none; stroke-linecap: butt; stroke-linejoin: miter; stroke-miterlimit: 4; fill: #2e2c2e; fill-rule: ; opacity: 1;">a</tspan><tspan x="51.38" y="8.98" style="stroke: none; stroke-width: 0; stroke-dasharray: none; stroke-linecap: butt; stroke-linejoin: miter; stroke-miterlimit: 4; fill: #2e2c2e; fill-rule: ; opacity: 1;">z</tspan><tspan x="69.07" y="8.98" style="stroke: none; stroke-width: 0; stroke-dasharray: none; stroke-linecap: butt; stroke-linejoin: miter; stroke-miterlimit: 4; fill: #2e2c2e; fill-rule: ; opacity: 1;">i</tspan></text>
 </g>
  <g transform="translate(172.91 290.1) scale(0.4 0.4)">
   <text font-family="ADAMCG PRO" font-size="40" font-weight="normal" style="stroke: none; stroke-width: 1; stroke-dasharray: none; stroke-linecap: butt; stroke-linejoin: miter; stroke-miterlimit: 10; fill: #000000; fill-rule: nonzero; opacity: 1;" ><tspan x="-235.91" y="8.98" style="stroke: none; stroke-width: 0; stroke-dasharray: none; stroke-linecap: butt; stroke-linejoin: miter; stroke-miterlimit: 4; fill: #000000; fill-rule: ; opacity: 1;">C</tspan><tspan x="-208.84" y="8.98" style="stroke: none; stroke-width: 0; stroke-dasharray: none; stroke-linecap: butt; stroke-linejoin: miter; stroke-miterlimit: 4; fill: #000000; fill-rule: ; opacity: 1;">L</tspan><tspan x="-188.41" y="8.98" style="stroke: none; stroke-width: 0; stroke-dasharray: none; stroke-linecap: butt; stroke-linejoin: miter; stroke-miterlimit: 4; fill: #000000; fill-rule: ; opacity: 1;">I</tspan><tspan x="-177.63" y="8.98" style="stroke: none; stroke-width: 0; stroke-dasharray: none; stroke-linecap: butt; stroke-linejoin: miter; stroke-miterlimit: 4; fill: #000000; fill-rule: ; opacity: 1;">C</tspan><tspan x="-150.56" y="8.98" style="stroke: none; stroke-width: 0; stroke-dasharray: none; stroke-linecap: butt; stroke-linejoin: miter; stroke-miterlimit: 4; fill: #000000; fill-rule: ; opacity: 1;">K</tspan><tspan x="-124.44" y="8.98" style="stroke: none; stroke-width: 0; stroke-dasharray: none; stroke-linecap: butt; stroke-linejoin: miter; stroke-miterlimit: 4; fill: #000000; fill-rule: ; opacity: 1;"> </tspan><tspan x="-112.45" y="8.98" style="stroke: none; stroke-width: 0; stroke-dasharray: none; stroke-linecap: butt; stroke-linejoin: miter; stroke-miterlimit: 4; fill: #000000; fill-rule: ; opacity: 1;">|</tspan><tspan x="-102.51" y="8.98" style="stroke: none; stroke-width: 0; stroke-dasharray: none; stroke-linecap: butt; stroke-linejoin: miter; stroke-miterlimit: 4; fill: #000000; fill-rule: ; opacity: 1;"> </tspan><tspan x="-90.52" y="8.98" style="stroke: none; stroke-width: 0; stroke-dasharray: none; stroke-linecap: butt; stroke-linejoin: miter; stroke-miterlimit: 4; fill: #000000; fill-rule: ; opacity: 1;">C</tspan><tspan x="-63.45" y="8.98" style="stroke: none; stroke-width: 0; stroke-dasharray: none; stroke-linecap: butt; stroke-linejoin: miter; stroke-miterlimit: 4; fill: #000000; fill-rule: ; opacity: 1;">a</tspan><tspan x="-35.65" y="8.98" style="stroke: none; stroke-width: 0; stroke-dasharray: none; stroke-linecap: butt; stroke-linejoin: miter; stroke-miterlimit: 4; fill: #000000; fill-rule: ; opacity: 1;">p</tspan><tspan x="-13.23" y="8.98" style="stroke: none; stroke-width: 0; stroke-dasharray: none; stroke-linecap: butt; stroke-linejoin: miter; stroke-miterlimit: 4; fill: #000000; fill-rule: ; opacity: 1;">r</tspan><tspan x="12.39" y="8.98" style="stroke: none; stroke-width: 0; stroke-dasharray: none; stroke-linecap: butt; stroke-linejoin: miter; stroke-miterlimit: 4; fill: #000000; fill-rule: ; opacity: 1;">t</tspan><tspan x="35.75" y="8.98" style="stroke: none; stroke-width: 0; stroke-dasharray: none; stroke-linecap: butt; stroke-linejoin: miter; stroke-miterlimit: 4; fill: #000000; fill-rule: ; opacity: 1;">u</tspan><tspan x="63.39" y="8.98" style="stroke: none; stroke-width: 0; stroke-dasharray: none; stroke-linecap: butt; stroke-linejoin: miter; stroke-miterlimit: 4; fill: #000000; fill-rule: ; opacity: 1;">r</tspan><tspan x="89.01" y="8.98" style="stroke: none; stroke-width: 0; stroke-dasharray: none; stroke-linecap: butt; stroke-linejoin: miter; stroke-miterlimit: 4; fill: #000000; fill-rule: ; opacity: 1;">e</tspan><tspan x="112.28" y="8.98" style="stroke: none; stroke-width: 0; stroke-dasharray: none; stroke-linecap: butt; stroke-linejoin: miter; stroke-miterlimit: 4; fill: #000000; fill-rule: ; opacity: 1;"> </tspan><tspan x="124.27" y="8.98" style="stroke: none; stroke-width: 0; stroke-dasharray: none; stroke-linecap: butt; stroke-linejoin: miter; stroke-miterlimit: 4; fill: #000000; fill-rule: ; opacity: 1;">|</tspan><tspan x="134.21" y="8.98" style="stroke: none; stroke-width: 0; stroke-dasharray: none; stroke-linecap: butt; stroke-linejoin: miter; stroke-miterlimit: 4; fill: #000000; fill-rule: ; opacity: 1;"> </tspan><tspan x="146.2" y="8.98" style="stroke: none; stroke-width: 0; stroke-dasharray: none; stroke-linecap: butt; stroke-linejoin: miter; stroke-miterlimit: 4; fill: #000000; fill-rule: ; opacity: 1;">E</tspan><tspan x="169.46" y="8.98" style="stroke: none; stroke-width: 0; stroke-dasharray: none; stroke-linecap: butt; stroke-linejoin: miter; stroke-miterlimit: 4; fill: #000000; fill-rule: ; opacity: 1;">X</tspan><tspan x="201.49" y="8.98" style="stroke: none; stroke-width: 0; stroke-dasharray: none; stroke-linecap: butt; stroke-linejoin: miter; stroke-miterlimit: 4; fill: #000000; fill-rule: ; opacity: 1;">P</tspan><tspan x="223.92" y="8.98" style="stroke: none; stroke-width: 0; stroke-dasharray: none; stroke-linecap: butt; stroke-linejoin: miter; stroke-miterlimit: 4; fill: #000000; fill-rule: ; opacity: 1;"> </tspan></text>
 </g>
</svg>